{"title":"Marilyn Monroe : Let s Make It Legal (1951) (mult subs6) 2Lions-","uid":5669218,"size":3354582672,"categoryP":"video","categoryS":"movies_dvdr","magnet":"?xt=urn:btih:eac692c0937204d1196217d33e6886cc0a447194&amp;dn=Marilyn+Monroe+%3A+Let+s+Make+It+Legal+%281951%29+%28mult+subs6%29+2Lions-&amp;tr=udp%3A%2F%2Ftracker.openbittorrent.com%3A80&amp;tr=udp%3A%2F%2Fopen.demonii.com%3A1337&amp;tr=udp%3A%2F%2Ftracker.coppersurfer.tk%3A6969&amp;tr=udp%3A%2F%2Fexodus.desync.com%3A6969","seeders":2,"leechers":2,"uploader":"Pioen","files":-1,"time":1278277731,"description":"Marilyn Monroe Let's Make It Legal (1951)       \n\n \nVerenigde Staten\nKomedie / Romantiek\n77 minuten\n\ngeregisseerd door Richard Sale\nmet Claudette Colbert, Macdonald Carey en Marilyn Monroe\n\nDe scheiding tussen de Halsworths eindigt om middernacht. Voordat dit allemaal gebeurt, belemmert een serie van sentimentele gebeurtenissen van beide echter het koppel om uit elkaar te gaan; zelfs een lang verdwenen vlam zit Miriam dwars\n\n\nEnglish\n\nThe divorce of Hugh and Miriam Halsworth becomes final at midnight. Hugh wouldn't dream of calling it off, but can't abandon his rose garden. Things change that afternoon, though, when Miriam's old suitor Victor Macfarland checks into the hotel where Hugh is publicity man. With Miriam's daughter Barbara rooting for Hugh and son-in-law Jerry rooting for Victor, things are unlikely to be resolved by midnight...\n\n\nSpotinformatie \nCategorie : Beeld \nFormaat : DVD5 \nBron : Retail\nAudio : English, Italian \nSubs : Dutch, English, French, Italian, Swedish, Italian\nCover : Yes\n \n\nVideo\nID                               : 224 (0xE0)\nFormat                           : MPEG Video\nFormat version                   : Version 2\nFormat profile                   : Main@Main\nFormat settings, Matrix          : Default\nDuration                         : 23mn 11s\nBit rate mode                    : Variable\nBit rate                         : 5 544 Kbps\nNominal bit rate                 : 7 500 Kbps\nWidth                            : 720 pixels\nHeight                           : 576 pixels\nDisplay aspect ratio             : 4/3\nFrame rate                       : 25.000 fps\nStandard                         : PAL\nColorimetry                      : 4:2:0\nScan type                        : Progressive\nScan order                       : Top Field First\nBits/(Pixel*Frame)               : 0.535\nStream size                      : 920 MiB (90%)\n\nAudio #1\nID                               : 128 (0x80)\nFormat                           : AC-3\nFormat/Info                      : Audio Coding 3\nDuration                         : 23mn 11s\nBit rate mode                    : Constant\nBit rate                         : 192 Kbps\nChannel(s)                       : 2 channels\nChannel positions                : L R\nSampling rate                    : 48.0 KHz\nVideo delay                      : -96ms\nStream size                      : 31.8 MiB (3%)\n\nGenre : Komedie\nRomantiek\n\n\nWeblink : &lt;a href=&quot; http://www.moviemeter.nl/film/23930&quot; rel=&quot;nofollow&quot; target=&quot;_NEW&quot;&gt; http://www.moviemeter.nl/film/23930&lt;/a&gt; \nWeblink : &lt;a href=&quot; http://www.imdb.com/title/tt0043736&quot; rel=&quot;nofollow&quot; target=&quot;_NEW&quot;&gt; http://www.imdb.com/title/tt0043736&lt;/a&gt; \n*****************************************\n\nBrought to you by \n\n\n2Lions Team\n\nmeer zien??\nKom dan eens kijken op ons forum \n\n\n\n\n2Lions the site to be for all your Dutch MOVIES and more\n\n******************************************\n\n\nDON T HIT AND RUN Niet gelijk afhaken als de FILM binnen is blijf seeden. \n\nDon`t quit after you finished the download, but keep seeding\n\n\nThere are fake torrents from uploaders who use our team name.\nThose are not ours, or members from our team.\nWe 2Lions-Team are not responsible for the fake posts on our name\n\nWij 2Lions-Team zijn niet verantwoordelijk voor die zieke FAKE posten die op onze naam worden gedaan\n\nPlease check our site !!!\t\n \n\n \n \n \n","torrent":{"xt":"urn:btih:eac692c0937204d1196217d33e6886cc0a447194","amp;dn":"Marilyn+Monroe+%3A+Let+s+Make+It+Legal+%281951%29+%28mult+subs6%29+2Lions-","amp;tr":["udp%3A%2F%2Ftracker.openbittorrent.com%3A80","udp%3A%2F%2Fopen.demonii.com%3A1337","udp%3A%2F%2Ftracker.coppersurfer.tk%3A6969","udp%3A%2F%2Fexodus.desync.com%3A6969"],"infoHash":"eac692c0937204d1196217d33e6886cc0a447194","infoHashBuffer":{"type":"Buffer","data":[234,198,146,192,147,114,4,209,25,98,23,211,62,104,134,204,10,68,113,148]},"announce":[],"urlList":[]}}